<?xml version="1.0" standalone="no"?>
<!DOCTYPE svg PUBLIC "-//W3C//DTD SVG 20010904//EN"
 "http://www.w3.org/TR/2001/REC-SVG-20010904/DTD/svg10.dtd">
<svg version="1.0" xmlns="http://www.w3.org/2000/svg"
 width="7500.000000pt" height="7500.000000pt" viewBox="0 0 7500.000000 7500.000000"
 preserveAspectRatio="xMidYMid meet">
<metadata>
Created by potrace 1.16, written by Peter Selinger 2001-2019
</metadata>
<g transform="translate(0.000000,7500.000000) scale(0.100000,-0.100000)"
fill="#000000" stroke="none">
<path d="M28280 37500 l0 -8240 125 0 125 0 0 8240 0 8240 -125 0 -125 0 0
-8240z"/>
<path d="M15660 42459 l-3155 -2181 -3 -699 -2 -699 560 0 560 0 0 -475 0
-475 275 0 275 0 0 -2432 c0 -2031 2 -2430 13 -2418 8 8 202 318 432 689 398
640 419 673 434 654 9 -11 203 -331 431 -711 228 -380 418 -691 423 -692 4 0
7 1105 7 2455 l0 2455 275 0 275 0 0 475 0 475 475 0 475 0 0 -475 0 -475 275
0 275 0 0 -2432 c0 -2062 2 -2430 14 -2418 7 8 201 318 431 688 230 369 421
672 424 672 3 -1 197 -318 430 -706 234 -388 428 -707 433 -710 4 -3 8 1100 8
2450 l0 2456 275 0 275 0 0 475 0 475 475 0 475 0 0 -475 0 -475 280 0 280 0
2 -2427 3 -2428 425 683 c233 375 427 682 430 682 3 0 196 -318 430 -706 234
-388 428 -708 433 -711 4 -2 7 1101 7 2451 l0 2456 275 0 275 0 0 475 0 475
560 0 560 0 0 698 0 698 -3159 2182 c-1738 1200 -3166 2182 -3173 2181 -7 0
-1433 -981 -3168 -2180z m6141 -356 l2949 -2037 0 -388 0 -388 -5920 0 -5920
0 2 389 3 390 2955 2041 c1773 1225 2960 2038 2968 2035 8 -3 1342 -922 2963
-2042z m-5751 -3493 l0 -270 -1015 0 -1015 0 0 270 0 270 1015 0 1015 0 0
-270z m3800 0 l0 -270 -1020 0 -1020 0 0 270 0 270 1020 0 1020 0 0 -270z
m3790 0 l0 -270 -1015 0 -1015 0 0 270 0 270 1015 0 1015 0 0 -270z m-8140
-2405 c0 -949 -2 -1725 -5 -1725 -2 0 -104 167 -226 370 -122 204 -225 370
-228 370 -3 -1 -94 -143 -201 -316 -107 -174 -210 -339 -227 -368 l-33 -51 0
1723 0 1722 460 0 460 0 0 -1725z m3790 -2 c0 -950 -4 -1723 -8 -1718 -5 6
-107 173 -227 373 -175 290 -221 360 -231 350 -7 -7 -105 -164 -219 -348 -114
-184 -214 -344 -221 -355 -12 -16 -14 245 -14 1703 l0 1722 460 0 460 0 0
-1727z m3790 0 c0 -961 -4 -1723 -9 -1718 -4 6 -106 174 -226 373 -177 297
-220 362 -230 350 -7 -7 -108 -168 -225 -358 -117 -190 -217 -349 -222 -355
-4 -5 -8 766 -8 1713 l0 1722 460 0 460 0 0 -1727z"/>
<path d="M18677 42120 c-415 -75 -727 -445 -727 -859 0 -407 270 -757 665
-862 117 -31 309 -31 424 -1 266 72 464 235 581 477 27 55 56 132 66 170 25
96 25 292 0 398 -74 320 -304 564 -621 658 -79 23 -304 34 -388 19z m292 -419
c84 -26 137 -59 202 -128 91 -95 129 -191 129 -324 0 -403 -483 -619 -782
-351 -114 103 -163 223 -156 384 3 82 8 102 40 168 40 82 114 165 186 207 107
63 262 81 381 44z"/>
<path d="M58595 42593 c-136 -7 -420 -44 -567 -73 -680 -133 -1228 -409 -1606
-808 -331 -349 -526 -752 -597 -1237 -32 -217 -35 -602 -5 -801 62 -423 186
-738 431 -1099 144 -212 353 -448 552 -624 256 -225 692 -543 1272 -928 876
-580 1177 -803 1526 -1129 287 -269 429 -450 554 -709 135 -280 188 -525 188
-880 0 -160 -4 -223 -21 -316 -78 -428 -281 -730 -642 -956 -556 -346 -1466
-367 -2103 -47 -225 113 -465 311 -626 514 -221 279 -428 694 -572 1147 -140
440 -223 899 -274 1516 l-7 77 -159 0 -159 0 0 -677 c0 -1101 -19 -2297 -46
-2921 l-7 -153 158 3 159 3 17 105 c44 269 97 408 181 470 76 57 233 32 413
-64 44 -24 141 -76 215 -116 362 -195 825 -356 1210 -419 621 -103 1423 -93
1999 24 726 148 1309 434 1718 843 434 434 646 909 694 1552 23 321 -9 679
-87 960 -128 460 -446 950 -867 1338 -228 211 -610 504 -1033 794 -430 296
-849 581 -1029 701 -407 272 -825 574 -1012 731 -184 154 -372 373 -488 569
-292 489 -297 1214 -13 1652 291 449 852 684 1493 625 464 -43 821 -205 1169
-531 485 -455 805 -1111 961 -1971 12 -70 55 -410 55 -440 0 -5 72 -8 160 -8
l160 0 0 523 c0 978 34 2322 65 2600 l6 47 -160 0 -160 0 -6 -37 c-83 -511
-173 -629 -419 -552 -71 21 -278 124 -466 231 -234 133 -492 248 -743 332
-305 101 -671 147 -1148 144 -151 -1 -301 -3 -334 -5z"/>
<path d="M44570 38510 c-1835 -4709 -1709 -4390 -1825 -4625 -163 -332 -286
-515 -470 -701 -161 -163 -284 -243 -453 -294 l-72 -22 0 -140 c0 -128 1 -139
18 -134 145 42 2278 42 2695 0 l57 -6 0 140 0 140 -77 7 c-336 27 -582 87
-778 188 -119 62 -232 176 -284 288 -73 156 -85 224 -85 469 0 226 7 290 60
530 70 317 145 543 446 1342 l233 618 1515 0 1515 0 444 -1213 c244 -666 458
-1260 477 -1319 69 -223 90 -409 60 -528 -45 -176 -164 -261 -446 -320 -97
-20 -278 -43 -427 -55 l-83 -7 0 -140 0 -140 43 6 c318 43 3772 44 4130 0 l47
-6 0 139 0 140 -78 16 c-199 43 -428 217 -574 438 -88 132 -176 318 -303 644
-64 165 -830 2140 -1703 4388 l-1587 4089 -481 1 -481 2 -1533 -3935z m1711
-52 c369 -1008 674 -1841 677 -1850 4 -17 -67 -18 -1402 -18 -773 0 -1406 2
-1406 4 0 7 1430 3718 1437 3729 4 6 10 2 14 -11 4 -11 310 -846 680 -1854z"/>
<path d="M31250 42281 l0 -141 53 0 c28 0 110 -7 181 -15 620 -73 753 -212
796 -836 8 -118 10 -1205 8 -3894 -3 -3480 -5 -3738 -21 -3845 -25 -162 -53
-264 -95 -344 -104 -199 -285 -277 -742 -321 -80 -8 -153 -15 -162 -15 -16 0
-18 -13 -18 -140 l0 -141 113 6 c519 24 909 30 2057 30 1113 0 2149 -13 2458
-31 l102 -6 0 155 0 154 -177 7 c-360 14 -659 53 -811 105 -108 37 -181 82
-256 157 -114 113 -169 253 -218 559 -7 49 -12 602 -15 1843 l-4 1772 280 0
c392 0 544 -17 748 -85 295 -98 530 -278 725 -555 178 -253 326 -646 403
-1065 9 -49 18 -98 21 -107 5 -16 22 -18 165 -18 l160 0 -5 43 c-6 42 -37 577
-56 953 -40 807 -36 2117 8 2832 l7 112 -159 -2 -159 -3 -37 -150 c-71 -286
-142 -485 -255 -720 -158 -326 -336 -565 -530 -709 -129 -97 -309 -175 -500
-217 -89 -19 -138 -22 -458 -26 l-358 -5 4 1923 c2 1792 4 1931 21 2029 62
370 193 480 616 519 147 14 905 14 1041 1 683 -67 1172 -373 1511 -942 252
-425 420 -935 595 -1803 l18 -90 159 -3 159 -3 -6 63 c-25 246 -31 454 -31
1013 0 690 19 1171 73 1860 10 127 17 231 16 233 -2 2 -144 -1 -317 -7 -1204
-41 -5018 -38 -6820 5 l-288 7 0 -142z"/>
<path d="M39875 34524 c-258 -37 -427 -100 -590 -221 -208 -154 -328 -364
-371 -643 -27 -182 -8 -428 44 -580 119 -344 416 -581 822 -656 133 -25 467
-25 598 -1 390 74 672 287 804 609 94 232 101 569 16 827 -91 275 -308 488
-608 595 -147 53 -247 68 -475 71 -115 2 -223 1 -240 -1z"/>
<path d="M52885 34524 c-301 -43 -500 -129 -674 -290 -127 -117 -219 -275
-268 -459 -24 -91 -26 -117 -27 -295 -1 -220 11 -298 68 -444 89 -227 249
-395 481 -507 198 -96 405 -134 670 -126 241 8 431 49 590 130 203 102 380
289 461 487 101 249 106 605 13 860 -115 313 -378 529 -749 617 -91 21 -133
25 -320 28 -118 2 -228 1 -245 -1z"/>
<path d="M13217 32653 c-4 -3 -7 -217 -7 -475 l0 -468 -337 -2 -338 -3 0 -675
0 -675 6295 0 6295 0 0 675 0 675 -337 3 -338 2 -2 473 -3 472 -5611 3 c-3086
1 -5614 -1 -5617 -5z m10823 -673 l0 -270 -5210 0 -5210 0 0 270 0 270 5210 0
5210 0 0 -270z m680 -950 l0 -270 -5890 0 -5890 0 0 270 0 270 5890 0 5890 0
0 -270z"/>
<path d="M38697 31269 c-108 -57 -103 -221 9 -274 47 -22 134 -17 171 11 68
51 91 138 55 204 -41 74 -153 102 -235 59z"/>
<path d="M47647 31269 c-108 -57 -103 -221 9 -274 47 -22 134 -17 171 11 68
51 91 138 55 204 -41 74 -153 102 -235 59z"/>
<path d="M56037 31269 c-108 -57 -103 -221 9 -274 74 -35 167 -10 218 58 29
39 33 123 7 164 -43 68 -156 93 -234 52z"/>
<path d="M44917 31230 c-62 -16 -118 -49 -168 -101 -62 -64 -90 -137 -97 -251
l-4 -87 -92 -3 -91 -3 0 -105 0 -105 93 -3 92 -3 0 -449 0 -450 130 0 130 0 0
450 0 450 150 0 150 0 0 110 0 110 -156 0 -157 0 6 70 c10 120 59 171 164 170
42 -1 77 -10 133 -34 12 -5 23 13 48 81 18 49 32 94 32 101 0 7 -21 23 -47 34
-38 17 -71 22 -163 24 -63 2 -132 -1 -153 -6z"/>
<path d="M45743 31226 c-162 -52 -253 -183 -253 -361 l0 -74 -92 -3 -93 -3 0
-105 0 -105 93 -3 92 -3 0 -449 0 -450 130 0 130 0 0 450 0 449 148 3 147 3 0
105 0 105 -154 3 -153 3 4 67 c7 125 48 167 161 167 49 0 83 -6 106 -18 19 -9
38 -14 42 -10 7 9 69 171 69 183 0 4 -24 18 -52 31 -44 19 -73 24 -168 26 -77
2 -129 -2 -157 -11z"/>
<path d="M51325 31144 c-97 -19 -228 -85 -286 -145 -72 -74 -102 -144 -107
-249 -7 -148 32 -237 141 -320 66 -49 159 -84 377 -140 181 -47 248 -73 297
-114 93 -78 47 -224 -85 -271 -72 -26 -232 -31 -333 -10 -105 21 -218 64 -287
110 l-53 35 -30 -68 c-66 -145 -66 -143 -38 -165 119 -96 402 -167 615 -153
125 8 198 26 290 71 170 83 258 243 233 421 -16 112 -64 186 -164 249 -71 45
-113 59 -342 120 -308 82 -363 120 -351 244 6 65 36 104 106 138 50 25 71 28
170 32 158 5 261 -17 392 -84 l50 -25 9 22 c5 13 23 58 40 101 17 43 31 82 31
87 0 11 -82 55 -144 77 -142 50 -379 67 -531 37z"/>
<path d="M33610 30405 l0 -736 133 3 132 3 3 277 2 278 353 2 352 3 0 115 0
115 -352 3 -353 2 0 220 0 220 398 2 397 3 3 113 3 112 -536 0 -535 0 0 -735z"/>
<path d="M43130 30414 c-179 -398 -326 -729 -328 -734 -2 -6 49 -10 135 -10
l140 0 72 170 73 170 368 0 368 0 73 -170 74 -170 143 0 c79 0 141 3 139 8 -2
4 -152 334 -332 735 l-328 727 -136 0 -136 -1 -325 -725z m592 148 c70 -163
130 -305 134 -314 6 -17 -11 -18 -266 -18 -172 0 -270 4 -268 10 14 43 264
620 268 620 3 0 62 -134 132 -298z"/>
<path d="M35320 30794 c-112 -22 -231 -85 -309 -164 -104 -105 -154 -233 -154
-395 0 -167 51 -294 163 -405 112 -112 258 -170 430 -170 279 0 501 160 576
416 22 78 23 228 0 313 -46 179 -169 310 -355 379 -55 21 -87 25 -196 28 -71
1 -141 0 -155 -2z m250 -233 c78 -30 134 -81 172 -159 31 -62 33 -74 33 -167
0 -120 -19 -178 -79 -243 -125 -136 -345 -142 -479 -14 -71 68 -102 159 -95
281 8 143 83 254 205 301 65 26 177 26 243 1z"/>
<path d="M36830 30781 c-79 -25 -117 -47 -172 -98 l-48 -46 0 77 0 76 -125 0
-125 0 0 -560 0 -560 129 0 129 0 4 318 c5 353 10 382 73 465 50 66 124 99
231 105 l84 5 0 118 0 119 -62 -1 c-35 0 -88 -8 -118 -18z"/>
<path d="M37599 30781 c-243 -66 -402 -279 -403 -541 -1 -269 138 -463 390
-546 82 -27 100 -29 229 -28 126 0 148 3 219 28 81 28 164 76 205 120 l24 26
-63 72 c-35 40 -67 77 -71 81 -3 5 -27 -7 -52 -26 -76 -58 -146 -80 -262 -80
-81 -1 -111 3 -156 21 -74 29 -141 89 -173 154 -48 96 -86 88 409 88 l434 0 6
33 c9 44 -11 193 -34 260 -59 169 -199 297 -376 342 -81 21 -242 19 -326 -4z
m318 -219 c23 -12 58 -36 77 -53 40 -35 86 -121 86 -161 l0 -28 -315 0 -315 0
6 28 c28 113 95 189 203 229 56 21 205 12 258 -15z"/>
<path d="M39655 30790 c-108 -22 -228 -91 -299 -172 -174 -199 -168 -523 12
-719 101 -110 250 -171 422 -172 150 -2 251 32 345 115 l35 30 0 -58 c0 -72
-20 -161 -46 -205 -28 -48 -96 -96 -161 -115 -43 -13 -85 -15 -182 -12 -142 6
-222 27 -318 85 -31 18 -58 33 -62 33 -8 0 -111 -175 -111 -189 0 -14 97 -71
166 -97 102 -38 213 -54 378 -54 122 0 166 4 226 21 180 50 284 151 346 339
17 50 19 105 22 613 l3 557 -125 0 -126 0 0 -71 0 -72 -44 41 c-86 80 -188
113 -342 111 -55 -1 -117 -5 -139 -9z m335 -241 c118 -55 171 -134 178 -264 7
-142 -47 -238 -164 -296 -122 -61 -288 -50 -386 24 -65 49 -104 114 -117 194
-27 161 50 299 198 352 81 30 215 25 291 -10z"/>
<path d="M41311 30784 c-67 -18 -139 -56 -185 -99 l-36 -33 0 69 0 69 -125 0
-125 0 0 -560 0 -560 129 0 130 0 3 338 c3 305 5 341 23 382 43 102 115 161
220 179 141 25 250 -22 303 -128 l27 -56 3 -357 3 -358 130 0 130 0 -3 398
c-4 380 -5 400 -26 457 -45 121 -146 217 -270 255 -78 24 -248 26 -331 4z"/>
<path d="M46518 30790 c-112 -19 -297 -103 -290 -131 2 -8 24 -51 48 -96 l45
-82 62 34 c83 45 174 68 277 68 95 0 149 -13 199 -51 40 -30 81 -113 81 -164
l0 -38 -157 0 c-306 0 -411 -25 -504 -119 -65 -67 -89 -124 -89 -217 0 -202
167 -334 421 -334 37 0 92 5 121 11 67 14 162 64 193 101 13 15 26 28 29 28 3
0 6 -29 6 -65 l0 -65 120 0 120 0 0 378 c0 406 -3 441 -54 540 -48 94 -151
167 -278 197 -68 16 -268 19 -350 5z m422 -705 c0 -74 -13 -105 -62 -151 -108
-103 -315 -112 -397 -19 -54 62 -43 157 24 201 41 27 81 32 263 33 l172 1 0
-65z"/>
<path d="M48740 30781 c-79 -25 -117 -47 -172 -98 l-48 -46 0 77 0 76 -125 0
-125 0 0 -560 0 -560 130 0 130 0 0 283 c0 287 8 385 37 441 55 107 137 157
269 164 l84 5 0 118 0 119 -62 -1 c-35 0 -88 -8 -118 -18z"/>
<path d="M49413 30780 c-190 -50 -297 -165 -296 -321 0 -98 25 -160 84 -213
59 -53 122 -78 261 -106 57 -11 140 -27 186 -36 131 -26 173 -68 148 -145 -9
-26 -22 -40 -61 -59 -45 -22 -61 -25 -160 -24 -128 2 -242 27 -334 74 l-61 30
-50 -100 -50 -99 73 -35 c122 -59 228 -80 402 -81 130 0 160 3 225 24 177 55
268 150 278 292 7 103 -16 166 -83 227 -63 58 -119 80 -290 112 -154 30 -256
58 -283 79 -35 26 -40 88 -11 125 39 49 90 66 209 66 113 0 190 -15 276 -54
l51 -23 46 93 c26 52 47 98 47 103 0 9 -56 34 -115 53 -133 41 -371 50 -492
18z"/>
<path d="M52700 30784 c-146 -38 -279 -140 -343 -261 -55 -106 -71 -172 -70
-293 2 -176 52 -300 164 -404 71 -66 125 -98 225 -133 73 -25 91 -27 224 -27
132 0 152 3 224 27 82 29 164 77 205 121 l24 26 -63 72 c-35 40 -67 77 -71 81
-3 5 -27 -7 -52 -26 -76 -58 -146 -80 -262 -80 -81 -1 -111 3 -156 21 -74 29
-141 89 -173 154 -48 96 -86 88 408 88 l434 0 7 31 c8 36 -1 129 -21 218 -42
185 -193 336 -389 386 -75 19 -241 19 -315 -1z m316 -227 c79 -40 133 -110
153 -196 l9 -41 -319 0 -319 0 6 28 c41 163 153 245 329 239 73 -3 99 -8 141
-30z"/>
<path d="M54210 30781 c-79 -25 -117 -47 -172 -98 l-48 -46 0 77 0 76 -125 0
-125 0 0 -560 0 -560 130 0 130 0 0 273 c0 376 14 450 95 532 55 54 115 78
213 83 l82 5 0 118 0 119 -62 -1 c-35 0 -88 -8 -118 -18z"/>
<path d="M57025 30790 c-115 -24 -239 -93 -311 -171 -90 -99 -133 -206 -141
-354 -9 -170 38 -303 151 -422 175 -186 481 -237 723 -122 67 32 161 116 188
169 18 34 31 22 -119 110 l-60 35 -55 -55 c-70 -69 -136 -95 -236 -94 -220 4
-361 182 -325 410 21 127 95 222 209 265 45 17 72 20 136 17 101 -6 165 -33
226 -98 l46 -49 92 53 c50 29 94 56 97 59 18 17 -96 143 -167 186 -80 47 -147
63 -284 67 -71 2 -148 -1 -170 -6z"/>
<path d="M58250 30784 c-194 -51 -346 -202 -397 -395 -23 -91 -21 -245 6 -329
59 -187 203 -322 402 -377 47 -13 99 -18 199 -17 120 0 144 4 215 28 81 27
162 75 205 121 l23 24 -58 68 c-32 37 -64 74 -71 82 -11 12 -18 10 -45 -13
-79 -67 -215 -105 -326 -92 -126 15 -238 89 -283 189 -39 84 -75 77 415 77
l435 0 6 26 c8 33 -3 154 -22 229 -47 183 -203 337 -385 380 -80 19 -246 18
-319 -1z m316 -227 c79 -40 136 -117 158 -209 l6 -28 -315 0 -315 0 0 24 c0
32 35 108 66 145 60 72 141 102 259 98 73 -3 99 -8 141 -30z"/>
<path d="M59491 30780 c-124 -33 -213 -97 -259 -184 -23 -44 -27 -63 -27 -141
0 -78 4 -98 26 -140 51 -100 142 -145 386 -190 178 -32 206 -40 243 -71 39
-33 41 -80 5 -123 -37 -43 -84 -56 -200 -55 -123 1 -242 26 -332 70 -37 18
-68 32 -69 31 -10 -15 -94 -185 -94 -191 0 -4 33 -22 73 -41 211 -101 519
-112 702 -26 132 61 195 152 195 279 0 94 -14 142 -57 192 -54 63 -134 95
-338 135 -246 49 -287 69 -287 139 0 51 18 75 75 102 44 20 68 24 148 24 120
0 187 -12 267 -50 l62 -29 50 99 50 100 -41 20 c-82 42 -185 62 -349 66 -132
4 -166 1 -229 -16z"/>
<path d="M38650 30230 l0 -560 130 0 130 0 0 560 0 560 -130 0 -130 0 0 -560z"/>
<path d="M47600 30230 l0 -560 130 0 130 0 0 560 0 560 -130 0 -130 0 0 -560z"/>
<path d="M54544 30773 c4 -10 111 -262 239 -561 l232 -542 135 2 135 3 232
540 c128 297 235 548 239 558 5 16 -5 17 -119 17 l-124 0 -133 -307 c-228
-529 -222 -517 -232 -499 -6 11 -281 663 -335 794 -4 9 -42 12 -140 12 -124 0
-135 -1 -129 -17z"/>
<path d="M55990 30230 l0 -560 130 0 130 0 0 560 0 560 -130 0 -130 0 0 -560z"/>
</g>
</svg>
